<?xml version="1.0" encoding="utf-8"?>
<!-- Generator: Adobe Illustrator 27.5.0, SVG Export Plug-In . SVG Version: 6.00 Build 0)  -->
<svg version="1.1" id="Layer_1" xmlns="http://www.w3.org/2000/svg" xmlns:xlink="http://www.w3.org/1999/xlink" x="0px" y="0px"
	 viewBox="0 0 259.4 59.7" style="enable-background:new 0 0 259.4 59.7;" xml:space="preserve">
<style type="text/css">
	.st0{fill:none;stroke:#38BDF8;stroke-width:2.482;stroke-linecap:round;stroke-miterlimit:8.2733;}
	.st1{fill:none;stroke:#38BDF8;stroke-width:2.482;stroke-miterlimit:8.2733;}
	.st2{fill:#38BDF8;}
	.st3{fill:#FFFFFF;}
</style>
<g id="SvgjsG2152" transform="matrix(1.1792397236228873,0,0,1.1792397236228873,-13.758189639582984,-15.8144209811679)">
	<polyline class="st0" points="11.7,20.8 18.6,20.8 27.9,50.5 55.3,50.5 61.2,28.7 22.2,28.4 	"/>
	<path class="st1" d="M27.4,50.5c0,0-12.4,4.5-2.5,8.6c0.5,0.2,2.6,0.7,2.6,0.7"/>
	<line class="st1" x1="35.5" y1="60" x2="46.1" y2="60"/>
	<line class="st0" x1="54.2" y1="60" x2="59.1" y2="60"/>
	<circle class="st2" cx="31.5" cy="60" r="4"/>
	<circle class="st2" cx="50.2" cy="60" r="4"/>
	<line class="st1" x1="23.9" y1="35.7" x2="58.9" y2="35.7"/>
	<line class="st1" x1="25.9" y1="43.2" x2="56.9" y2="43.2"/>
	<line class="st1" x1="35.5" y1="29" x2="35.5" y2="50"/>
	<line class="st1" x1="48.2" y1="29.4" x2="48.2" y2="49.8"/>
	<g>
		<path class="st2" d="M41.3,13.4l-16.4,5.3c-1.5,0.5,0.8,5.5,0.8,5.5h21.4c0,0-4.2-9.8-4.4-10.4C42.5,13.3,41.3,13.4,41.3,13.4z"/>
		<path class="st2" d="M58.5,18.8l-11-1.5l2.7,7h7.8c0,0,0.9-2,1.1-3.6C59.3,19.1,58.5,18.8,58.5,18.8z"/>
	</g>
</g>
<g id="SvgjsG2153" transform="matrix(3.2913682128415767,0,0,3.2913682128415767,97.73381038861947,1.7938792333391156)">
	<path class="st3" d="M0.1,7.1c0,1.6-0.9,2.9-2.3,3.5l2.3,3.3h-1.7l-2.1-3.1h-2.5v3.1h-1.6v-3.1V9.5V4.6V3.3h1.6h2.5
		C-1.6,3.4,0.1,5,0.1,7.1z M-6.2,4.6v4.9h2.5c1.2,0,2.2-1,2.2-2.4c0-1.4-1-2.4-2.2-2.4C-3.7,4.6-6.2,4.6-6.2,4.6z M8.3,10.4v0.5H2.8
		c0,1.3,1.2,1.9,2.1,1.9c0.7,0,1.4-0.4,1.8-0.9l1,0.9C7.3,13.4,6.5,14,4.9,14c-2.2,0-3.6-1.5-3.6-3.6s1.3-3.6,3.5-3.6S7.9,8,8.2,9.7
		C8.3,10,8.3,10.2,8.3,10.4z M2.9,9.7h3.9c0-1.1-0.9-1.7-2-1.7S2.9,8.7,2.9,9.7z M12.4,12.7c0.4,0.2,0.8,0.1,1,0v1.1
		c-0.2,0.1-0.4,0.2-0.8,0.2c-0.8,0-1.6-0.3-2-1c-0.4-0.7-0.4-1.1-0.4-2.2V8.1H9.3V6.9h0.8V4.7h1.4v2.2h1.8v1.2h-1.8v2.7
		C11.6,12,11.7,12.4,12.4,12.7z M18,6.8c2,0,2.8,1.2,2.8,2.2v4.8h-1.4v-0.8c-0.5,0.7-1.4,0.9-2,0.9c-1.6,0-2.6-0.9-2.6-2.2
		c0-1.7,1.3-2.3,2.6-2.3h2V9c0-0.4-0.2-1-1.3-1c-0.7,0-1.3,0.4-1.7,0.9l-1-0.9C16,7.3,17,6.8,18,6.8z M19.4,11.7v-1h-1.8
		c-0.9,0-1.5,0.4-1.4,1.2c0.1,0.7,0.6,0.9,1.4,0.9C18.9,12.8,19.4,12.2,19.4,11.7z M24.2,6.9v6.9h-1.4V6.9H24.2z M24.3,4.4
		c0,0.4-0.4,0.8-0.8,0.8c-0.4,0-0.8-0.4-0.8-0.8c0-0.4,0.4-0.8,0.8-0.8C23.9,3.6,24.3,4,24.3,4.4z M27.8,3.1v10.8h-1.5V3.1
		C26.4,3.1,27.8,3.1,27.8,3.1z M36.1,8h4.3v5.9h-1.6v-1.3c-1,1-2.3,1.5-3.8,1.5c-2.9,0-5.3-2.3-5.3-5.4c0-3,2.4-5.4,5.3-5.4
		c1.5,0,2.9,0.5,3.9,1.6l-1,1C37.1,5,36.2,4.5,35,4.5c-2.3,0-3.8,1.8-3.8,4.1c0,2,1.4,4.1,3.8,4.1c1,0,2-0.3,2.7-1.1
		c0.6-0.7,1-1.5,1.1-2.4h-2.7L36.1,8L36.1,8z M45.5,8c-1.2,0-2.2,1-2.2,2.4c0,1.4,1,2.4,2.2,2.4c1.2,0,2.2-1,2.2-2.4
		C47.7,9,46.7,8,45.5,8z M45.5,6.8c2,0,3.6,1.5,3.6,3.6S47.5,14,45.5,14c-2,0-3.6-1.5-3.6-3.6S43.5,6.8,45.5,6.8z"/>
</g>
</svg>
